<svg xmlns="http://www.w3.org/2000/svg" viewBox="0 0 1723.28 473.17"><defs><style>.cls-1{fill:#2b3840;}.cls-2{fill:#ffc20e;}.cls-3{fill:#00c7c7;}</style></defs><title>Logicode_NoSlogan</title><g id="Layer_2" data-name="Layer 2"><g id="Layer_1-2" data-name="Layer 1"><polygon class="cls-1" points="1313.54 94.63 1395.49 141.95 1477.43 94.63 1395.49 47.32 1313.54 94.63"/><polygon class="cls-2" points="1477.43 94.63 1477.43 283.9 1395.49 331.22 1395.49 141.95 1477.43 94.63"/><polygon class="cls-3" points="1477.43 378.54 1395.49 331.22 1395.49 141.95 1313.54 94.63 1313.54 378.54 1477.43 473.17 1477.43 378.54"/><polygon class="cls-1" points="1477.43 283.9 1559.38 331.22 1477.43 378.54 1395.49 331.22 1477.43 283.9"/><polygon class="cls-3" points="1477.43 94.63 1641.33 0 1723.28 47.32 1559.38 141.95 1477.43 94.63"/><polygon class="cls-1" points="1559.38 425.86 1723.28 331.22 1723.28 236.59 1641.33 283.9 1641.33 189.27 1723.28 141.95 1723.28 47.32 1559.38 141.95 1559.38 425.86"/><polygon class="cls-2" points="1723.28 236.59 1641.33 189.27 1641.33 283.9 1723.28 236.59"/><path class="cls-1" d="M220.66,130.17v64a8.22,8.22,0,0,1-8.36,8.36H190.12V370.1a8.23,8.23,0,0,1-8.36,8.36H114.51a8.23,8.23,0,0,1-8.36-8.36V202.51H8.36A8.23,8.23,0,0,1,0,194.15v-64a8.23,8.23,0,0,1,8.36-8.36H212.3A8.22,8.22,0,0,1,220.66,130.17Z"/><path class="cls-1" d="M250.46,130.17a8.23,8.23,0,0,1,8.36-8.36h67.25a8.22,8.22,0,0,1,8.36,8.36V370.1a8.23,8.23,0,0,1-8.36,8.36H258.82a8.23,8.23,0,0,1-8.36-8.36Z"/><path class="cls-1" d="M359.88,130.17a8.22,8.22,0,0,1,8.36-8.36H554.73c26.17,0,48.71,19.26,48.71,48.35a100.77,100.77,0,0,1-2.54,20.35L553.28,370.82c-1.1,3.64-4.37,7.64-8.73,7.64H474c-4.73,0-7.27-2.91-7.27-7.64v-1.45L510,205.06c.37-1.46,0-2.55-1.45-2.55H368.24a8.22,8.22,0,0,1-8.36-8.36Zm0,114.51a8.22,8.22,0,0,1,8.36-8.36h67.25a8.22,8.22,0,0,1,8.36,8.36v189a8.23,8.23,0,0,1-8.36,8.37H368.24a8.23,8.23,0,0,1-8.36-8.37Z"/><path class="cls-1" d="M630.8,130.17a8.22,8.22,0,0,1,8.36-8.36h67.25a8.22,8.22,0,0,1,8.36,8.36v131.6a8.23,8.23,0,0,1-8.36,8.36H639.16a8.23,8.23,0,0,1-8.36-8.36Z"/><path class="cls-1" d="M904.79,378.46h-72c-4.36,0-6.91-2.91-8-6.91l-13.46-43.26c-5.45,16.72-11.27,30.9-20,39.63-11.27,11.27-23.63,11.63-37.44,11.63H743.38c-5.45,0-9.81-2.18-9.81-6.91l-1.09-72.34c0-4,3.27-6.91,6.91-8h16c9.82,0,20,.37,27.27-2.91A22.55,22.55,0,0,0,795,275.22L751,133.08c-1.46-4.36,1.45-11.27,5.45-11.27h74.16c5.82,0,8.73,4.36,10.54,10.54l69.44,234.84C912.79,373,909.52,378.46,904.79,378.46Z"/><path class="cls-1" d="M928.41,130.17a8.23,8.23,0,0,1,8.36-8.36H1004a8.23,8.23,0,0,1,8.36,8.36V370.1a8.23,8.23,0,0,1-8.36,8.36H936.77a8.23,8.23,0,0,1-8.36-8.36Z"/><path class="cls-1" d="M1254.13,166.89c0,6.9-2.18,16.72-5.45,27.26l-55.26,175.22c-1.82,5.09-6.18,9.09-11.63,9.09H1110.9c-4.73,0-8-3.64-8-8.36a6.11,6.11,0,0,1,.37-2.55l.36-.72L1156.34,204c.36-.73,0-1.46-.72-1.46H1042.56a8.22,8.22,0,0,1-8.36-8.36V77.46a8.22,8.22,0,0,1,8.36-8.36h66.16a8.22,8.22,0,0,1,8.36,8.36v44.35l90.88-.37C1233.41,121.44,1254.13,139.62,1254.13,166.89Z"/></g></g></svg>